<mxfile host="app.diagrams.net" modified="2023-06-04T07:23:26.588Z" agent="Mozilla/5.0 (Macintosh; Intel Mac OS X 10_15_7) AppleWebKit/537.36 (KHTML, like Gecko) Chrome/114.0.0.0 Safari/537.36" version="21.3.7" etag="MUB1U1GlwlFn8xq4tjn9" type="github">
  <diagram name="Sivu-1" id="sU4_W2Jqa3gPV7SYMj6e">
    <mxGraphModel>
      <root>
        <mxCell id="0" />
        <mxCell id="1" parent="0" />
      </root>
    </mxGraphModel>
  </diagram>
</mxfile>
